<svg width="786" height="970" viewBox="0 0 786 970" fill="none" xmlns="http://www.w3.org/2000/svg">
<path d="M565.052 601.351L193.549 -228.362L188.672 -226.994L560.175 602.719L565.052 601.351Z" fill="url(#paint0_linear_31_491)" fill-opacity="0.05"/>
<path d="M553.33 604.619L181.828 -225.094L176.951 -223.726L548.454 605.987L553.33 604.619Z" fill="url(#paint1_linear_31_491)" fill-opacity="0.05"/>
<path d="M541.646 607.901L170.143 -221.812L165.267 -220.445L536.769 609.268L541.646 607.901Z" fill="url(#paint2_linear_31_491)" fill-opacity="0.05"/>
<path d="M529.977 611.207L158.474 -218.506L153.598 -217.139L525.1 612.574L529.977 611.207Z" fill="url(#paint3_linear_31_491)" fill-opacity="0.05"/>
<path d="M518.276 614.469L146.774 -215.244L141.897 -213.877L513.4 615.837L518.276 614.469Z" fill="url(#paint4_linear_31_491)" fill-opacity="0.05"/>
<path d="M506.562 617.764L135.06 -211.949L130.183 -210.582L501.686 619.131L506.562 617.764Z" fill="url(#paint5_linear_31_491)" fill-opacity="0.05"/>
<path d="M494.877 621.034L123.375 -208.679L118.498 -207.312L490.001 622.401L494.877 621.034Z" fill="url(#paint6_linear_31_491)" fill-opacity="0.05"/>
<path d="M483.156 624.313L111.654 -205.4L106.777 -204.032L478.28 625.681L483.156 624.313Z" fill="url(#paint7_linear_31_491)" fill-opacity="0.05"/>
<path d="M471.463 627.591L99.9602 -202.123L95.0836 -200.755L466.586 628.958L471.463 627.591Z" fill="url(#paint8_linear_31_491)" fill-opacity="0.05"/>
<path d="M459.787 630.881L88.2842 -198.832L83.4076 -197.464L454.91 632.249L459.787 630.881Z" fill="url(#paint9_linear_31_491)" fill-opacity="0.05"/>
<path d="M448.102 634.163L76.5994 -195.55L71.7228 -194.182L443.225 635.531L448.102 634.163Z" fill="url(#paint10_linear_31_491)" fill-opacity="0.05"/>
<path d="M436.388 637.446L64.885 -192.267L60.0085 -190.899L431.511 638.814L436.388 637.446Z" fill="url(#paint11_linear_31_491)" fill-opacity="0.05"/>
<path d="M424.702 640.716L53.1997 -188.997L48.3231 -187.629L419.826 642.084L424.702 640.716Z" fill="url(#paint12_linear_31_491)" fill-opacity="0.05"/>
<path d="M412.982 643.996L41.4791 -185.717L36.6025 -184.35L408.105 645.363L412.982 643.996Z" fill="url(#paint13_linear_31_491)" fill-opacity="0.05"/>
<path d="M401.303 647.28L29.8003 -182.433L24.9236 -181.065L396.426 648.648L401.303 647.28Z" fill="url(#paint14_linear_31_491)" fill-opacity="0.05"/>
<path d="M389.582 650.549L18.0793 -179.165L13.2027 -177.797L384.705 651.916L389.582 650.549Z" fill="url(#paint15_linear_31_491)" fill-opacity="0.05"/>
<path d="M377.904 653.845L6.40112 -175.868L1.52454 -174.5L373.027 655.213L377.904 653.845Z" fill="url(#paint16_linear_31_491)" fill-opacity="0.05"/>
<path d="M366.234 657.123L-5.26869 -172.59L-10.1453 -171.222L361.357 658.491L366.234 657.123Z" fill="url(#paint17_linear_31_491)" fill-opacity="0.05"/>
<path d="M354.498 660.395L-17.0048 -169.318L-21.8814 -167.95L349.621 661.763L354.498 660.395Z" fill="url(#paint18_linear_31_491)" fill-opacity="0.05"/>
<path d="M342.82 663.68L-28.6831 -166.033L-33.5597 -164.666L337.943 665.048L342.82 663.68Z" fill="url(#paint19_linear_31_491)" fill-opacity="0.05"/>
<path d="M331.128 666.963L-40.3741 -162.75L-45.2507 -161.382L326.252 668.331L331.128 666.963Z" fill="url(#paint20_linear_31_491)" fill-opacity="0.05"/>
<path d="M319.413 670.229L-52.0891 -159.484L-56.9657 -158.116L314.537 671.597L319.413 670.229Z" fill="url(#paint21_linear_31_491)" fill-opacity="0.05"/>
<path d="M307.699 673.512L-63.8037 -156.201L-68.6803 -154.833L302.822 674.88L307.699 673.512Z" fill="url(#paint22_linear_31_491)" fill-opacity="0.05"/>
<path d="M296.044 676.797L-75.4589 -152.916L-80.3355 -151.548L291.167 678.165L296.044 676.797Z" fill="url(#paint23_linear_31_491)" fill-opacity="0.05"/>
<path d="M284.361 680.108L-87.1421 -149.605L-92.0187 -148.237L279.484 681.476L284.361 680.108Z" fill="url(#paint24_linear_31_491)" fill-opacity="0.05"/>
<path d="M272.645 683.362L-98.858 -146.351L-103.735 -144.983L267.768 684.73L272.645 683.362Z" fill="url(#paint25_linear_31_491)" fill-opacity="0.05"/>
<path d="M260.924 686.642L-110.579 -143.071L-115.455 -141.703L256.047 688.01L260.924 686.642Z" fill="url(#paint26_linear_31_491)" fill-opacity="0.05"/>
<path d="M249.245 689.927L-122.257 -139.786L-127.134 -138.419L244.369 691.295L249.245 689.927Z" fill="url(#paint27_linear_31_491)" fill-opacity="0.05"/>
<path d="M237.555 693.21L-133.948 -136.503L-138.824 -135.135L232.678 694.578L237.555 693.21Z" fill="url(#paint28_linear_31_491)" fill-opacity="0.05"/>
<path d="M225.839 696.476L-145.663 -133.237L-150.54 -131.869L220.963 697.844L225.839 696.476Z" fill="url(#paint29_linear_31_491)" fill-opacity="0.05"/>
<path d="M214.155 699.775L-157.347 -129.938L-162.224 -128.57L209.279 701.143L214.155 699.775Z" fill="url(#paint30_linear_31_491)" fill-opacity="0.05"/>
<path d="M202.485 703.052L-169.017 -126.661L-173.894 -125.293L197.609 704.42L202.485 703.052Z" fill="url(#paint31_linear_31_491)" fill-opacity="0.05"/>
<path d="M190.756 706.34L-180.746 -123.373L-185.623 -122.006L185.88 707.707L190.756 706.34Z" fill="url(#paint32_linear_31_491)" fill-opacity="0.05"/>
<path d="M179.071 709.609L-192.432 -120.104L-197.308 -118.736L174.194 710.977L179.071 709.609Z" fill="url(#paint33_linear_31_491)" fill-opacity="0.05"/>
<path d="M167.371 712.884L-204.132 -116.83L-209.008 -115.462L162.494 714.251L167.371 712.884Z" fill="url(#paint34_linear_31_491)" fill-opacity="0.05"/>
<path d="M155.671 716.174L-215.831 -113.539L-220.708 -112.171L150.795 717.542L155.671 716.174Z" fill="url(#paint35_linear_31_491)" fill-opacity="0.05"/>
<path d="M143.95 719.442L-227.552 -110.271L-232.429 -108.903L139.074 720.81L143.95 719.442Z" fill="url(#paint36_linear_31_491)" fill-opacity="0.05"/>
<path d="M132.265 722.724L-239.237 -106.99L-244.114 -105.622L127.389 724.091L132.265 722.724Z" fill="url(#paint37_linear_31_491)" fill-opacity="0.05"/>
<defs>
<linearGradient id="paint0_linear_31_491" x1="122.874" y1="8.17918" x2="342.32" y2="619.984" gradientUnits="userSpaceOnUse">
<stop stop-color="#FC801C"/>
<stop offset="1" stop-color="#FC801C" stop-opacity="0"/>
</linearGradient>
<linearGradient id="paint1_linear_31_491" x1="122.874" y1="8.17918" x2="342.32" y2="619.984" gradientUnits="userSpaceOnUse">
<stop stop-color="#FC801C"/>
<stop offset="1" stop-color="#FC801C" stop-opacity="0"/>
</linearGradient>
<linearGradient id="paint2_linear_31_491" x1="122.874" y1="8.17918" x2="342.32" y2="619.984" gradientUnits="userSpaceOnUse">
<stop stop-color="#FC801C"/>
<stop offset="1" stop-color="#FC801C" stop-opacity="0"/>
</linearGradient>
<linearGradient id="paint3_linear_31_491" x1="122.874" y1="8.17918" x2="342.32" y2="619.984" gradientUnits="userSpaceOnUse">
<stop stop-color="#FC801C"/>
<stop offset="1" stop-color="#FC801C" stop-opacity="0"/>
</linearGradient>
<linearGradient id="paint4_linear_31_491" x1="122.874" y1="8.17918" x2="342.32" y2="619.984" gradientUnits="userSpaceOnUse">
<stop stop-color="#FC801C"/>
<stop offset="1" stop-color="#FC801C" stop-opacity="0"/>
</linearGradient>
<linearGradient id="paint5_linear_31_491" x1="122.874" y1="8.17918" x2="342.32" y2="619.984" gradientUnits="userSpaceOnUse">
<stop stop-color="#FC801C"/>
<stop offset="1" stop-color="#FC801C" stop-opacity="0"/>
</linearGradient>
<linearGradient id="paint6_linear_31_491" x1="122.874" y1="8.17918" x2="342.32" y2="619.984" gradientUnits="userSpaceOnUse">
<stop stop-color="#FC801C"/>
<stop offset="1" stop-color="#FC801C" stop-opacity="0"/>
</linearGradient>
<linearGradient id="paint7_linear_31_491" x1="122.874" y1="8.17918" x2="342.32" y2="619.984" gradientUnits="userSpaceOnUse">
<stop stop-color="#FC801C"/>
<stop offset="1" stop-color="#FC801C" stop-opacity="0"/>
</linearGradient>
<linearGradient id="paint8_linear_31_491" x1="122.874" y1="8.17918" x2="342.32" y2="619.984" gradientUnits="userSpaceOnUse">
<stop stop-color="#FC801C"/>
<stop offset="1" stop-color="#FC801C" stop-opacity="0"/>
</linearGradient>
<linearGradient id="paint9_linear_31_491" x1="122.874" y1="8.17918" x2="342.32" y2="619.984" gradientUnits="userSpaceOnUse">
<stop stop-color="#FC801C"/>
<stop offset="1" stop-color="#FC801C" stop-opacity="0"/>
</linearGradient>
<linearGradient id="paint10_linear_31_491" x1="122.874" y1="8.17918" x2="342.32" y2="619.984" gradientUnits="userSpaceOnUse">
<stop stop-color="#FC801C"/>
<stop offset="1" stop-color="#FC801C" stop-opacity="0"/>
</linearGradient>
<linearGradient id="paint11_linear_31_491" x1="122.874" y1="8.17918" x2="342.32" y2="619.984" gradientUnits="userSpaceOnUse">
<stop stop-color="#FC801C"/>
<stop offset="1" stop-color="#FC801C" stop-opacity="0"/>
</linearGradient>
<linearGradient id="paint12_linear_31_491" x1="122.874" y1="8.17918" x2="342.32" y2="619.984" gradientUnits="userSpaceOnUse">
<stop stop-color="#FC801C"/>
<stop offset="1" stop-color="#FC801C" stop-opacity="0"/>
</linearGradient>
<linearGradient id="paint13_linear_31_491" x1="122.874" y1="8.17918" x2="342.32" y2="619.984" gradientUnits="userSpaceOnUse">
<stop stop-color="#FC801C"/>
<stop offset="1" stop-color="#FC801C" stop-opacity="0"/>
</linearGradient>
<linearGradient id="paint14_linear_31_491" x1="122.874" y1="8.17918" x2="342.32" y2="619.984" gradientUnits="userSpaceOnUse">
<stop stop-color="#FC801C"/>
<stop offset="1" stop-color="#FC801C" stop-opacity="0"/>
</linearGradient>
<linearGradient id="paint15_linear_31_491" x1="122.874" y1="8.17918" x2="342.32" y2="619.984" gradientUnits="userSpaceOnUse">
<stop stop-color="#FC801C"/>
<stop offset="1" stop-color="#FC801C" stop-opacity="0"/>
</linearGradient>
<linearGradient id="paint16_linear_31_491" x1="122.874" y1="8.17918" x2="342.32" y2="619.984" gradientUnits="userSpaceOnUse">
<stop stop-color="#FC801C"/>
<stop offset="1" stop-color="#FC801C" stop-opacity="0"/>
</linearGradient>
<linearGradient id="paint17_linear_31_491" x1="122.874" y1="8.17918" x2="342.32" y2="619.984" gradientUnits="userSpaceOnUse">
<stop stop-color="#FC801C"/>
<stop offset="1" stop-color="#FC801C" stop-opacity="0"/>
</linearGradient>
<linearGradient id="paint18_linear_31_491" x1="122.874" y1="8.17918" x2="342.32" y2="619.984" gradientUnits="userSpaceOnUse">
<stop stop-color="#FC801C"/>
<stop offset="1" stop-color="#FC801C" stop-opacity="0"/>
</linearGradient>
<linearGradient id="paint19_linear_31_491" x1="122.874" y1="8.17918" x2="342.32" y2="619.984" gradientUnits="userSpaceOnUse">
<stop stop-color="#FC801C"/>
<stop offset="1" stop-color="#FC801C" stop-opacity="0"/>
</linearGradient>
<linearGradient id="paint20_linear_31_491" x1="122.874" y1="8.17918" x2="342.32" y2="619.984" gradientUnits="userSpaceOnUse">
<stop stop-color="#FC801C"/>
<stop offset="1" stop-color="#FC801C" stop-opacity="0"/>
</linearGradient>
<linearGradient id="paint21_linear_31_491" x1="122.874" y1="8.17918" x2="342.32" y2="619.984" gradientUnits="userSpaceOnUse">
<stop stop-color="#FC801C"/>
<stop offset="1" stop-color="#FC801C" stop-opacity="0"/>
</linearGradient>
<linearGradient id="paint22_linear_31_491" x1="122.874" y1="8.17918" x2="342.32" y2="619.984" gradientUnits="userSpaceOnUse">
<stop stop-color="#FC801C"/>
<stop offset="1" stop-color="#FC801C" stop-opacity="0"/>
</linearGradient>
<linearGradient id="paint23_linear_31_491" x1="122.874" y1="8.17918" x2="342.32" y2="619.984" gradientUnits="userSpaceOnUse">
<stop stop-color="#FC801C"/>
<stop offset="1" stop-color="#FC801C" stop-opacity="0"/>
</linearGradient>
<linearGradient id="paint24_linear_31_491" x1="122.874" y1="8.17918" x2="342.32" y2="619.984" gradientUnits="userSpaceOnUse">
<stop stop-color="#FC801C"/>
<stop offset="1" stop-color="#FC801C" stop-opacity="0"/>
</linearGradient>
<linearGradient id="paint25_linear_31_491" x1="122.874" y1="8.17918" x2="342.32" y2="619.984" gradientUnits="userSpaceOnUse">
<stop stop-color="#FC801C"/>
<stop offset="1" stop-color="#FC801C" stop-opacity="0"/>
</linearGradient>
<linearGradient id="paint26_linear_31_491" x1="122.874" y1="8.17918" x2="342.32" y2="619.984" gradientUnits="userSpaceOnUse">
<stop stop-color="#FC801C"/>
<stop offset="1" stop-color="#FC801C" stop-opacity="0"/>
</linearGradient>
<linearGradient id="paint27_linear_31_491" x1="122.874" y1="8.17918" x2="342.32" y2="619.984" gradientUnits="userSpaceOnUse">
<stop stop-color="#FC801C"/>
<stop offset="1" stop-color="#FC801C" stop-opacity="0"/>
</linearGradient>
<linearGradient id="paint28_linear_31_491" x1="122.874" y1="8.17918" x2="342.32" y2="619.984" gradientUnits="userSpaceOnUse">
<stop stop-color="#FC801C"/>
<stop offset="1" stop-color="#FC801C" stop-opacity="0"/>
</linearGradient>
<linearGradient id="paint29_linear_31_491" x1="122.874" y1="8.17918" x2="342.32" y2="619.984" gradientUnits="userSpaceOnUse">
<stop stop-color="#FC801C"/>
<stop offset="1" stop-color="#FC801C" stop-opacity="0"/>
</linearGradient>
<linearGradient id="paint30_linear_31_491" x1="122.874" y1="8.17918" x2="342.32" y2="619.984" gradientUnits="userSpaceOnUse">
<stop stop-color="#FC801C"/>
<stop offset="1" stop-color="#FC801C" stop-opacity="0"/>
</linearGradient>
<linearGradient id="paint31_linear_31_491" x1="122.874" y1="8.17918" x2="342.32" y2="619.984" gradientUnits="userSpaceOnUse">
<stop stop-color="#FC801C"/>
<stop offset="1" stop-color="#FC801C" stop-opacity="0"/>
</linearGradient>
<linearGradient id="paint32_linear_31_491" x1="122.874" y1="8.17918" x2="342.32" y2="619.984" gradientUnits="userSpaceOnUse">
<stop stop-color="#FC801C"/>
<stop offset="1" stop-color="#FC801C" stop-opacity="0"/>
</linearGradient>
<linearGradient id="paint33_linear_31_491" x1="122.874" y1="8.17918" x2="342.32" y2="619.984" gradientUnits="userSpaceOnUse">
<stop stop-color="#FC801C"/>
<stop offset="1" stop-color="#FC801C" stop-opacity="0"/>
</linearGradient>
<linearGradient id="paint34_linear_31_491" x1="122.874" y1="8.17918" x2="342.32" y2="619.984" gradientUnits="userSpaceOnUse">
<stop stop-color="#FC801C"/>
<stop offset="1" stop-color="#FC801C" stop-opacity="0"/>
</linearGradient>
<linearGradient id="paint35_linear_31_491" x1="122.874" y1="8.17918" x2="342.32" y2="619.984" gradientUnits="userSpaceOnUse">
<stop stop-color="#FC801C"/>
<stop offset="1" stop-color="#FC801C" stop-opacity="0"/>
</linearGradient>
<linearGradient id="paint36_linear_31_491" x1="122.874" y1="8.17918" x2="342.32" y2="619.984" gradientUnits="userSpaceOnUse">
<stop stop-color="#FC801C"/>
<stop offset="1" stop-color="#FC801C" stop-opacity="0"/>
</linearGradient>
<linearGradient id="paint37_linear_31_491" x1="122.874" y1="8.17918" x2="342.32" y2="619.984" gradientUnits="userSpaceOnUse">
<stop stop-color="#FC801C"/>
<stop offset="1" stop-color="#FC801C" stop-opacity="0"/>
</linearGradient>
</defs>
</svg>
