<svg width="758" height="935" viewBox="0 0 758 935" fill="none" xmlns="http://www.w3.org/2000/svg">
<path d="M662.876 -279.852L158.696 541.72L163.623 543.813L667.802 -277.76L662.876 -279.852Z" fill="url(#paint0_linear_31_394)" fill-opacity="0.4"/>
<path d="M674.698 -274.808L170.519 546.764L175.445 548.857L679.625 -272.716L674.698 -274.808Z" fill="url(#paint1_linear_31_394)" fill-opacity="0.4"/>
<path d="M686.506 -269.797L182.327 551.775L187.253 553.868L691.433 -267.704L686.506 -269.797Z" fill="url(#paint2_linear_31_394)" fill-opacity="0.4"/>
<path d="M698.326 -264.813L194.146 556.759L199.073 558.852L703.252 -262.72L698.326 -264.813Z" fill="url(#paint3_linear_31_394)" fill-opacity="0.4"/>
<path d="M710.127 -259.778L205.948 561.794L210.874 563.887L715.053 -257.685L710.127 -259.778Z" fill="url(#paint4_linear_31_394)" fill-opacity="0.4"/>
<path d="M721.97 -254.757L217.79 566.815L222.717 568.908L726.896 -252.665L721.97 -254.757Z" fill="url(#paint5_linear_31_394)" fill-opacity="0.4"/>
<path d="M733.767 -249.737L229.588 571.835L234.514 573.928L738.693 -247.645L733.767 -249.737Z" fill="url(#paint6_linear_31_394)" fill-opacity="0.4"/>
<path d="M745.6 -244.702L241.421 576.87L246.347 578.963L750.527 -242.609L745.6 -244.702Z" fill="url(#paint7_linear_31_394)" fill-opacity="0.4"/>
<path d="M757.411 -239.682L253.232 581.89L258.158 583.983L762.337 -237.589L757.411 -239.682Z" fill="url(#paint8_linear_31_394)" fill-opacity="0.4"/>
<path d="M769.221 -234.683L265.042 586.89L269.968 588.982L774.148 -232.59L769.221 -234.683Z" fill="url(#paint9_linear_31_394)" fill-opacity="0.4"/>
<path d="M781.029 -229.671L276.85 591.901L281.777 593.994L785.956 -227.578L781.029 -229.671Z" fill="url(#paint10_linear_31_394)" fill-opacity="0.4"/>
<path d="M792.861 -224.642L288.682 596.93L293.608 599.023L797.787 -222.549L792.861 -224.642Z" fill="url(#paint11_linear_31_394)" fill-opacity="0.4"/>
<path d="M804.658 -219.622L300.479 601.95L305.405 604.043L809.585 -217.529L804.658 -219.622Z" fill="url(#paint12_linear_31_394)" fill-opacity="0.4"/>
<path d="M816.492 -214.587L312.312 606.985L317.239 609.078L821.418 -212.494L816.492 -214.587Z" fill="url(#paint13_linear_31_394)" fill-opacity="0.4"/>
<path d="M828.298 -209.581L324.119 611.991L329.045 614.084L833.225 -207.488L828.298 -209.581Z" fill="url(#paint14_linear_31_394)" fill-opacity="0.4"/>
<path d="M840.121 -204.537L335.941 617.035L340.868 619.128L845.047 -202.445L840.121 -204.537Z" fill="url(#paint15_linear_31_394)" fill-opacity="0.4"/>
<path d="M851.938 -199.541L347.759 622.031L352.685 624.124L856.864 -197.448L851.938 -199.541Z" fill="url(#paint16_linear_31_394)" fill-opacity="0.4"/>
<path d="M863.731 -194.536L359.552 627.036L364.478 629.129L868.658 -192.443L863.731 -194.536Z" fill="url(#paint17_linear_31_394)" fill-opacity="0.4"/>
<path d="M875.569 -189.485L371.389 632.087L376.316 634.18L880.495 -187.393L875.569 -189.485Z" fill="url(#paint18_linear_31_394)" fill-opacity="0.4"/>
<path d="M887.375 -184.48L383.196 637.092L388.122 639.185L892.301 -182.388L887.375 -184.48Z" fill="url(#paint19_linear_31_394)" fill-opacity="0.4"/>
<path d="M899.189 -179.466L395.01 642.106L399.937 644.199L904.116 -177.373L899.189 -179.466Z" fill="url(#paint20_linear_31_394)" fill-opacity="0.4"/>
<path d="M911.006 -174.425L406.827 647.147L411.753 649.24L915.932 -172.332L911.006 -174.425Z" fill="url(#paint21_linear_31_394)" fill-opacity="0.4"/>
<path d="M922.837 -169.396L418.658 652.176L423.585 654.269L927.764 -167.303L922.837 -169.396Z" fill="url(#paint22_linear_31_394)" fill-opacity="0.4"/>
<path d="M934.627 -164.405L430.447 657.167L435.374 659.26L939.553 -162.312L934.627 -164.405Z" fill="url(#paint23_linear_31_394)" fill-opacity="0.4"/>
<path d="M946.461 -159.415L442.282 662.157L447.208 664.25L951.387 -157.322L946.461 -159.415Z" fill="url(#paint24_linear_31_394)" fill-opacity="0.4"/>
<path d="M958.266 -154.365L454.087 667.207L459.014 669.3L963.193 -152.272L958.266 -154.365Z" fill="url(#paint25_linear_31_394)" fill-opacity="0.4"/>
<path d="M970.1 -149.33L465.921 672.242L470.847 674.335L975.026 -147.237L970.1 -149.33Z" fill="url(#paint26_linear_31_394)" fill-opacity="0.4"/>
<path d="M981.906 -144.324L477.727 677.248L482.654 679.341L986.833 -142.231L981.906 -144.324Z" fill="url(#paint27_linear_31_394)" fill-opacity="0.4"/>
<path d="M993.721 -139.311L489.541 682.262L494.468 684.354L998.647 -137.218L993.721 -139.311Z" fill="url(#paint28_linear_31_394)" fill-opacity="0.4"/>
<path d="M1005.54 -134.269L501.358 687.303L506.284 689.396L1010.46 -132.176L1005.54 -134.269Z" fill="url(#paint29_linear_31_394)" fill-opacity="0.4"/>
<path d="M1017.36 -129.27L513.181 692.302L518.108 694.395L1022.29 -127.177L1017.36 -129.27Z" fill="url(#paint30_linear_31_394)" fill-opacity="0.4"/>
<path d="M1029.15 -124.265L524.975 697.307L529.901 699.4L1034.08 -122.172L1029.15 -124.265Z" fill="url(#paint31_linear_31_394)" fill-opacity="0.4"/>
<path d="M1041 -119.229L536.821 702.343L541.747 704.436L1045.93 -117.137L1041 -119.229Z" fill="url(#paint32_linear_31_394)" fill-opacity="0.4"/>
<path d="M1052.8 -114.209L548.618 707.363L553.545 709.456L1057.72 -112.116L1052.8 -114.209Z" fill="url(#paint33_linear_31_394)" fill-opacity="0.4"/>
<path d="M1064.61 -109.183L560.431 712.389L565.357 714.482L1069.54 -107.09L1064.61 -109.183Z" fill="url(#paint34_linear_31_394)" fill-opacity="0.4"/>
<path d="M1076.44 -104.169L572.258 717.404L577.185 719.496L1081.36 -102.076L1076.44 -104.169Z" fill="url(#paint35_linear_31_394)" fill-opacity="0.4"/>
<path d="M1088.26 -99.1245L584.081 722.448L589.007 724.54L1093.19 -97.0317L1088.26 -99.1245Z" fill="url(#paint36_linear_31_394)" fill-opacity="0.4"/>
<path d="M1100.07 -94.113L595.889 727.459L600.815 729.552L1104.99 -92.0202L1100.07 -94.113Z" fill="url(#paint37_linear_31_394)" fill-opacity="0.4"/>
<defs>
<linearGradient id="paint0_linear_31_394" x1="768.573" y1="-348.322" x2="618.411" y2="511.185" gradientUnits="userSpaceOnUse">
<stop stop-color="#FC801C"/>
<stop offset="1" stop-color="#FC801C" stop-opacity="0"/>
</linearGradient>
<linearGradient id="paint1_linear_31_394" x1="768.573" y1="-348.322" x2="618.411" y2="511.185" gradientUnits="userSpaceOnUse">
<stop stop-color="#FC801C"/>
<stop offset="1" stop-color="#FC801C" stop-opacity="0"/>
</linearGradient>
<linearGradient id="paint2_linear_31_394" x1="768.573" y1="-348.322" x2="618.411" y2="511.185" gradientUnits="userSpaceOnUse">
<stop stop-color="#FC801C"/>
<stop offset="1" stop-color="#FC801C" stop-opacity="0"/>
</linearGradient>
<linearGradient id="paint3_linear_31_394" x1="768.573" y1="-348.322" x2="618.411" y2="511.185" gradientUnits="userSpaceOnUse">
<stop stop-color="#FC801C"/>
<stop offset="1" stop-color="#FC801C" stop-opacity="0"/>
</linearGradient>
<linearGradient id="paint4_linear_31_394" x1="768.573" y1="-348.322" x2="618.411" y2="511.185" gradientUnits="userSpaceOnUse">
<stop stop-color="#FC801C"/>
<stop offset="1" stop-color="#FC801C" stop-opacity="0"/>
</linearGradient>
<linearGradient id="paint5_linear_31_394" x1="768.573" y1="-348.322" x2="618.411" y2="511.185" gradientUnits="userSpaceOnUse">
<stop stop-color="#FC801C"/>
<stop offset="1" stop-color="#FC801C" stop-opacity="0"/>
</linearGradient>
<linearGradient id="paint6_linear_31_394" x1="768.573" y1="-348.322" x2="618.411" y2="511.185" gradientUnits="userSpaceOnUse">
<stop stop-color="#FC801C"/>
<stop offset="1" stop-color="#FC801C" stop-opacity="0"/>
</linearGradient>
<linearGradient id="paint7_linear_31_394" x1="768.573" y1="-348.322" x2="618.411" y2="511.185" gradientUnits="userSpaceOnUse">
<stop stop-color="#FC801C"/>
<stop offset="1" stop-color="#FC801C" stop-opacity="0"/>
</linearGradient>
<linearGradient id="paint8_linear_31_394" x1="768.573" y1="-348.322" x2="618.411" y2="511.185" gradientUnits="userSpaceOnUse">
<stop stop-color="#FC801C"/>
<stop offset="1" stop-color="#FC801C" stop-opacity="0"/>
</linearGradient>
<linearGradient id="paint9_linear_31_394" x1="768.573" y1="-348.322" x2="618.411" y2="511.185" gradientUnits="userSpaceOnUse">
<stop stop-color="#FC801C"/>
<stop offset="1" stop-color="#FC801C" stop-opacity="0"/>
</linearGradient>
<linearGradient id="paint10_linear_31_394" x1="768.573" y1="-348.322" x2="618.411" y2="511.185" gradientUnits="userSpaceOnUse">
<stop stop-color="#FC801C"/>
<stop offset="1" stop-color="#FC801C" stop-opacity="0"/>
</linearGradient>
<linearGradient id="paint11_linear_31_394" x1="768.573" y1="-348.322" x2="618.411" y2="511.185" gradientUnits="userSpaceOnUse">
<stop stop-color="#FC801C"/>
<stop offset="1" stop-color="#FC801C" stop-opacity="0"/>
</linearGradient>
<linearGradient id="paint12_linear_31_394" x1="768.573" y1="-348.322" x2="618.411" y2="511.185" gradientUnits="userSpaceOnUse">
<stop stop-color="#FC801C"/>
<stop offset="1" stop-color="#FC801C" stop-opacity="0"/>
</linearGradient>
<linearGradient id="paint13_linear_31_394" x1="768.573" y1="-348.322" x2="618.411" y2="511.185" gradientUnits="userSpaceOnUse">
<stop stop-color="#FC801C"/>
<stop offset="1" stop-color="#FC801C" stop-opacity="0"/>
</linearGradient>
<linearGradient id="paint14_linear_31_394" x1="768.573" y1="-348.322" x2="618.411" y2="511.185" gradientUnits="userSpaceOnUse">
<stop stop-color="#FC801C"/>
<stop offset="1" stop-color="#FC801C" stop-opacity="0"/>
</linearGradient>
<linearGradient id="paint15_linear_31_394" x1="768.573" y1="-348.322" x2="618.411" y2="511.185" gradientUnits="userSpaceOnUse">
<stop stop-color="#FC801C"/>
<stop offset="1" stop-color="#FC801C" stop-opacity="0"/>
</linearGradient>
<linearGradient id="paint16_linear_31_394" x1="768.573" y1="-348.322" x2="618.411" y2="511.185" gradientUnits="userSpaceOnUse">
<stop stop-color="#FC801C"/>
<stop offset="1" stop-color="#FC801C" stop-opacity="0"/>
</linearGradient>
<linearGradient id="paint17_linear_31_394" x1="768.573" y1="-348.322" x2="618.411" y2="511.185" gradientUnits="userSpaceOnUse">
<stop stop-color="#FC801C"/>
<stop offset="1" stop-color="#FC801C" stop-opacity="0"/>
</linearGradient>
<linearGradient id="paint18_linear_31_394" x1="768.573" y1="-348.322" x2="618.411" y2="511.185" gradientUnits="userSpaceOnUse">
<stop stop-color="#FC801C"/>
<stop offset="1" stop-color="#FC801C" stop-opacity="0"/>
</linearGradient>
<linearGradient id="paint19_linear_31_394" x1="768.573" y1="-348.322" x2="618.411" y2="511.185" gradientUnits="userSpaceOnUse">
<stop stop-color="#FC801C"/>
<stop offset="1" stop-color="#FC801C" stop-opacity="0"/>
</linearGradient>
<linearGradient id="paint20_linear_31_394" x1="768.573" y1="-348.322" x2="618.411" y2="511.185" gradientUnits="userSpaceOnUse">
<stop stop-color="#FC801C"/>
<stop offset="1" stop-color="#FC801C" stop-opacity="0"/>
</linearGradient>
<linearGradient id="paint21_linear_31_394" x1="768.573" y1="-348.322" x2="618.411" y2="511.185" gradientUnits="userSpaceOnUse">
<stop stop-color="#FC801C"/>
<stop offset="1" stop-color="#FC801C" stop-opacity="0"/>
</linearGradient>
<linearGradient id="paint22_linear_31_394" x1="768.573" y1="-348.322" x2="618.411" y2="511.185" gradientUnits="userSpaceOnUse">
<stop stop-color="#FC801C"/>
<stop offset="1" stop-color="#FC801C" stop-opacity="0"/>
</linearGradient>
<linearGradient id="paint23_linear_31_394" x1="768.573" y1="-348.322" x2="618.411" y2="511.185" gradientUnits="userSpaceOnUse">
<stop stop-color="#FC801C"/>
<stop offset="1" stop-color="#FC801C" stop-opacity="0"/>
</linearGradient>
<linearGradient id="paint24_linear_31_394" x1="768.573" y1="-348.322" x2="618.411" y2="511.185" gradientUnits="userSpaceOnUse">
<stop stop-color="#FC801C"/>
<stop offset="1" stop-color="#FC801C" stop-opacity="0"/>
</linearGradient>
<linearGradient id="paint25_linear_31_394" x1="768.573" y1="-348.322" x2="618.411" y2="511.185" gradientUnits="userSpaceOnUse">
<stop stop-color="#FC801C"/>
<stop offset="1" stop-color="#FC801C" stop-opacity="0"/>
</linearGradient>
<linearGradient id="paint26_linear_31_394" x1="768.573" y1="-348.322" x2="618.411" y2="511.185" gradientUnits="userSpaceOnUse">
<stop stop-color="#FC801C"/>
<stop offset="1" stop-color="#FC801C" stop-opacity="0"/>
</linearGradient>
<linearGradient id="paint27_linear_31_394" x1="768.573" y1="-348.322" x2="618.411" y2="511.185" gradientUnits="userSpaceOnUse">
<stop stop-color="#FC801C"/>
<stop offset="1" stop-color="#FC801C" stop-opacity="0"/>
</linearGradient>
<linearGradient id="paint28_linear_31_394" x1="768.573" y1="-348.322" x2="618.411" y2="511.185" gradientUnits="userSpaceOnUse">
<stop stop-color="#FC801C"/>
<stop offset="1" stop-color="#FC801C" stop-opacity="0"/>
</linearGradient>
<linearGradient id="paint29_linear_31_394" x1="768.573" y1="-348.322" x2="618.411" y2="511.185" gradientUnits="userSpaceOnUse">
<stop stop-color="#FC801C"/>
<stop offset="1" stop-color="#FC801C" stop-opacity="0"/>
</linearGradient>
<linearGradient id="paint30_linear_31_394" x1="768.573" y1="-348.322" x2="618.411" y2="511.185" gradientUnits="userSpaceOnUse">
<stop stop-color="#FC801C"/>
<stop offset="1" stop-color="#FC801C" stop-opacity="0"/>
</linearGradient>
<linearGradient id="paint31_linear_31_394" x1="768.573" y1="-348.322" x2="618.411" y2="511.185" gradientUnits="userSpaceOnUse">
<stop stop-color="#FC801C"/>
<stop offset="1" stop-color="#FC801C" stop-opacity="0"/>
</linearGradient>
<linearGradient id="paint32_linear_31_394" x1="768.573" y1="-348.322" x2="618.411" y2="511.185" gradientUnits="userSpaceOnUse">
<stop stop-color="#FC801C"/>
<stop offset="1" stop-color="#FC801C" stop-opacity="0"/>
</linearGradient>
<linearGradient id="paint33_linear_31_394" x1="768.573" y1="-348.322" x2="618.411" y2="511.185" gradientUnits="userSpaceOnUse">
<stop stop-color="#FC801C"/>
<stop offset="1" stop-color="#FC801C" stop-opacity="0"/>
</linearGradient>
<linearGradient id="paint34_linear_31_394" x1="768.573" y1="-348.322" x2="618.411" y2="511.185" gradientUnits="userSpaceOnUse">
<stop stop-color="#FC801C"/>
<stop offset="1" stop-color="#FC801C" stop-opacity="0"/>
</linearGradient>
<linearGradient id="paint35_linear_31_394" x1="768.573" y1="-348.322" x2="618.411" y2="511.185" gradientUnits="userSpaceOnUse">
<stop stop-color="#FC801C"/>
<stop offset="1" stop-color="#FC801C" stop-opacity="0"/>
</linearGradient>
<linearGradient id="paint36_linear_31_394" x1="768.573" y1="-348.322" x2="618.411" y2="511.185" gradientUnits="userSpaceOnUse">
<stop stop-color="#FC801C"/>
<stop offset="1" stop-color="#FC801C" stop-opacity="0"/>
</linearGradient>
<linearGradient id="paint37_linear_31_394" x1="768.573" y1="-348.322" x2="618.411" y2="511.185" gradientUnits="userSpaceOnUse">
<stop stop-color="#FC801C"/>
<stop offset="1" stop-color="#FC801C" stop-opacity="0"/>
</linearGradient>
</defs>
</svg>
