<svg xmlns="http://www.w3.org/2000/svg" width="31" height="30" viewBox="0 0 31 30" fill="none">
<path opacity="0.25" d="M4.50073 5C4.50073 2.92893 6.16458 1.25 8.21705 1.25H20.3042C21.2898 1.25 22.2351 1.64509 22.932 2.34835L25.7102 5.15165C26.4071 5.85491 26.7986 6.80874 26.7986 7.8033V25C26.7986 27.0711 25.1348 28.75 23.0823 28.75H8.21705C6.16459 28.75 4.50073 27.0711 4.50073 25V5Z" fill="#B5B5C3"/>
<path d="M19.366 2.36476C19.366 1.74909 19.8606 1.25 20.4707 1.25C21.3497 1.25 22.1927 1.60234 22.8142 2.22951L25.8279 5.27049C26.4494 5.89766 26.7986 6.74829 26.7986 7.63524C26.7986 8.25091 26.304 8.75 25.6939 8.75H20.6047C19.9206 8.75 19.366 8.19036 19.366 7.5V2.36476Z" fill="#B5B5C3"/>
<path d="M15.1755 11.3448C15.0294 11.4058 14.8925 11.4963 14.7737 11.6161L11.0574 15.3661C10.5736 15.8543 10.5736 16.6457 11.0574 17.1339C11.5412 17.622 12.3255 17.622 12.8093 17.1339L14.4109 15.5178V21.25C14.4109 21.9404 14.9655 22.5 15.6497 22.5C16.3338 22.5 16.8884 21.9404 16.8884 21.25V15.5178L18.49 17.1339C18.9738 17.622 19.7582 17.622 20.2419 17.1339C20.7257 16.6457 20.7257 15.8543 20.2419 15.3661L16.5256 11.6161C16.1606 11.2478 15.6245 11.1574 15.1755 11.3448Z" fill="#B5B5C3"/>
</svg>
