<svg width="11" height="11" viewBox="0 0 11 11" fill="none" xmlns="http://www.w3.org/2000/svg">
<g clip-path="url(#clip0_46_750)">
<path d="M10.3125 5.50002C10.3136 5.64101 10.2707 5.77884 10.1899 5.89435C10.109 6.00987 9.9942 6.09732 9.86135 6.14455L7.13541 7.13584L6.14455 9.86135C6.09571 9.99292 6.00778 10.1064 5.89256 10.1865C5.77734 10.2667 5.64036 10.3096 5.50002 10.3096C5.35968 10.3096 5.22269 10.2667 5.10748 10.1865C4.99226 10.1064 4.90432 9.99292 4.85549 9.86135L3.8642 7.13283L1.13869 6.14455C1.00712 6.09571 0.893644 6.00778 0.813512 5.89256C0.733381 5.77734 0.69043 5.64036 0.69043 5.50002C0.69043 5.35967 0.733381 5.22269 0.813512 5.10748C0.893644 4.99226 1.00712 4.90432 1.13869 4.85549L3.86721 3.8642L4.85549 1.13869C4.90432 1.00712 4.99226 0.893644 5.10748 0.813512C5.22269 0.733381 5.35968 0.69043 5.50002 0.69043C5.64036 0.69043 5.77734 0.733381 5.89256 0.813512C6.00778 0.893644 6.09571 1.00712 6.14455 1.13869L7.13584 3.86721L9.86135 4.85549C9.9942 4.90272 10.109 4.99017 10.1899 5.10568C10.2707 5.22119 10.3136 5.35902 10.3125 5.50002Z" fill="#DDDDDD"/>
</g>
<defs>
<clipPath id="clip0_46_750">
<rect width="11" height="11" fill="white"/>
</clipPath>
</defs>
</svg>
